HIERARCHY
ROOT root
{
	OFFSET 0.000000 0.000000 0.000000
	CHANNELS 6 Xposition Yposition Zposition Zrotation Yrotation Xrotation
	JOINT lhip
	{
		OFFSET 0.058581 -0.082280 -0.017664
		CHANNELS 3 Zrotation Yrotation Xrotation
		JOINT lknee
		{
			OFFSET 0.043451 -0.386469 0.008037
			CHANNELS 3 Zrotation Yrotation Xrotation
			JOINT lankle
			{
				OFFSET -0.014790 -0.426874 -0.037428
				CHANNELS 3 Zrotation Yrotation Xrotation
				JOINT ltoe
				{
					OFFSET 0.041054 -0.060286 0.122042
					CHANNELS 3 Zrotation Yrotation Xrotation
					End Site
					{
						OFFSET 0.000000 0.000000 0.000000
					}
				}
			}
		}
	}
	JOINT rhip
	{
		OFFSET -0.060310 -0.090513 -0.013543
		CHANNELS 3 Zrotation Yrotation Xrotation
		JOINT rknee
		{
			OFFSET -0.043257 -0.383688 -0.004843
			CHANNELS 3 Zrotation Yrotation Xrotation
			JOINT rankle
			{
				OFFSET 0.019056 -0.420046 -0.034562
				CHANNELS 3 Zrotation Yrotation Xrotation
				JOINT rtoe
				{
					OFFSET -0.034840 -0.062106 0.130323
					CHANNELS 3 Zrotation Yrotation Xrotation
					End Site
					{
						OFFSET 0.000000 0.000000 0.000000
					}
				}
			}
		}
	}
	JOINT lowerback
	{
		OFFSET 0.004439 0.124404 -0.038385
		CHANNELS 3 Zrotation Yrotation Xrotation
		JOINT upperback
		{
			OFFSET 0.004488 0.137956 0.026820
			CHANNELS 3 Zrotation Yrotation Xrotation
			JOINT chest
			{
				OFFSET -0.002265 0.056032 0.002855
				CHANNELS 3 Zrotation Yrotation Xrotation
				JOINT lowerneck
				{
					OFFSET -0.013390 0.211636 -0.033468
					CHANNELS 3 Zrotation Yrotation Xrotation
					JOINT upperneck
					{
						OFFSET 0.010113 0.088937 0.050410
						CHANNELS 3 Zrotation Yrotation Xrotation
						End Site
						{
							OFFSET 0.000000 0.000000 0.000000
						}
					}
				}
				JOINT lclavicle
				{
					OFFSET 0.071702 0.114000 -0.018898
					CHANNELS 3 Zrotation Yrotation Xrotation
					JOINT lshoulder
					{
						OFFSET 0.122921 0.045205 -0.019046
						CHANNELS 3 Zrotation Yrotation Xrotation
						JOINT lelbow
						{
							OFFSET 0.255332 -0.015649 -0.022946
							CHANNELS 3 Zrotation Yrotation Xrotation
							JOINT lwrist
							{
								OFFSET 0.265709 0.012698 -0.007375
								CHANNELS 3 Zrotation Yrotation Xrotation
								End Site
								{
									OFFSET 0.000000 0.000000 0.000000
								}
							}
						}
					}
				}
				JOINT rclavicle
				{
					OFFSET -0.082954 0.112472 -0.023707
					CHANNELS 3 Zrotation Yrotation Xrotation
					JOINT rshoulder
					{
						OFFSET -0.113228 0.046853 -0.008472
						CHANNELS 3 Zrotation Yrotation Xrotation
						JOINT relbow
						{
							OFFSET -0.260127 -0.014369 -0.031269
							CHANNELS 3 Zrotation Yrotation Xrotation
							JOINT rwrist
							{
								OFFSET -0.269108 0.006794 -0.006027
								CHANNELS 3 Zrotation Yrotation Xrotation
								End Site
								{
									OFFSET 0.000000 0.000000 0.000000
								}
							}
						}
					}
				}
			}
		}
	}
}
MOTION
Frames: 7
Frame Time: 0.033333
-1.272667 0.246050 0.978404 130.917524 -3.920919 88.382212 -1.313089 -10.639340 -4.042891 -2.766263 -19.707244 7.309988 1.595698 3.799840 -11.202197 0.000000 -0.000000 0.000000 -5.012383 -11.846219 1.464593 -3.026982 -12.936000 16.890140 2.882636 -17.977423 -19.572943 0.000000 -0.000000 0.000000 2.509400 11.199485 6.458606 -3.949002 7.308047 -1.990370 -0.199679 5.230120 3.123430 -0.820312 37.051891 2.764242 -5.297482 28.496004 8.842206 -20.788849 10.036138 -5.160502 -58.310943 -1.051483 9.846471 8.016298 -35.083072 16.913226 4.494914 -0.523029 -4.616441 21.531643 -2.782102 1.828543 59.943833 7.185079 16.918515 -11.084993 23.295851 6.259459 -11.728128 1.086988 0.155050 
-1.272412 0.246279 0.978396 130.589835 -3.902961 88.507971 -1.254366 -10.628908 -4.041808 -2.733836 -19.509807 7.189535 1.801161 3.943246 -11.216289 0.000000 -0.000000 0.000000 -4.997343 -11.560929 1.376728 -2.927471 -12.845405 16.816582 3.085388 -18.056979 -19.632409 0.000000 -0.000000 0.000000 2.300325 11.185653 6.308236 -3.859237 7.237757 -1.909037 -0.219275 5.363711 3.059261 -0.704501 37.047890 2.671566 -5.325799 28.382058 8.776914 -20.621807 9.850668 -4.925254 -58.696032 -0.985150 10.158111 8.303821 -34.500057 17.392920 4.186944 -0.496813 -5.649899 21.639194 -2.842814 1.836538 60.168524 7.102287 17.153884 -11.439223 23.458986 6.318949 -11.835922 0.764821 -0.686972 
-1.272239 0.246600 0.978372 130.379025 -3.871395 88.574426 -1.213496 -10.512837 -4.024969 -2.684666 -19.330207 7.112897 1.911893 3.903010 -11.271627 0.000000 -0.000000 0.000000 -4.980802 -11.480405 1.304855 -2.938039 -12.858126 16.833135 3.113706 -17.918366 -19.593619 0.000000 -0.000000 0.000000 2.217875 11.149338 6.297678 -3.861361 7.193085 -1.898492 -0.242960 5.358468 3.015672 -0.692498 37.109976 2.525992 -5.388264 28.322916 8.691964 -20.583344 9.812286 -4.886971 -58.961692 -0.867960 10.201189 8.263893 -34.010194 17.692063 3.666741 -0.501874 -5.512221 21.604202 -2.889097 1.799948 60.603090 7.111832 17.226537 -11.611852 23.490886 6.221715 -11.344426 0.676925 -1.093384 
-1.271887 0.247017 0.978400 130.253093 -3.848547 88.635156 -1.182595 -10.406259 -3.991716 -2.663273 -19.182682 7.027978 1.908899 3.844333 -11.261770 0.000000 -0.000000 0.000000 -4.959897 -11.378537 1.293366 -2.949803 -12.925576 16.798458 3.110934 -17.838908 -19.521032 0.000000 -0.000000 0.000000 2.161747 11.068754 6.328915 -3.892691 7.140807 -1.931752 -0.290875 5.267392 2.997421 -0.729848 37.086106 2.357483 -5.462063 28.249176 8.546552 -20.632491 9.878259 -4.820448 -59.144473 -0.672722 10.251650 8.091441 -33.734977 18.043234 3.303091 -0.542458 -5.640844 21.558451 -2.947127 1.823439 61.175906 7.235164 17.385832 -11.772051 23.554828 6.180182 -11.210480 0.633220 -1.382522 
-1.271640 0.247261 0.978434 130.224575 -3.834879 88.650215 -1.175136 -10.373041 -3.961670 -2.647834 -19.132103 6.996363 1.894737 3.827009 -11.265971 0.000000 -0.000000 0.000000 -4.942442 -11.323772 1.315136 -2.961804 -12.976454 16.777509 3.120255 -17.815734 -19.494643 0.000000 -0.000000 0.000000 2.120308 11.043630 6.331704 -3.906372 7.122124 -1.925265 -0.313956 5.214311 3.011431 -0.716182 37.127136 2.284640 -5.558088 28.255251 8.482721 -20.674982 9.949693 -4.837030 -59.225031 -0.550784 10.304354 7.925284 -33.643152 18.373288 3.136346 -0.538967 -5.461431 21.605307 -2.988136 1.764026 61.421763 7.262904 17.502948 -11.822977 23.633865 6.136792 -11.191952 0.624952 -1.428925 
-1.271260 0.247570 0.978422 130.172708 -3.822141 88.654947 -1.171079 -10.359187 -3.898858 -2.623495 -19.059127 6.954059 1.900449 3.836375 -11.274211 0.000000 -0.000000 0.000000 -4.921496 -11.279535 1.353162 -2.989391 -13.001841 16.758347 3.112656 -17.784102 -19.449816 0.000000 -0.000000 0.000000 2.038388 11.056435 6.276582 -3.907011 7.129339 -1.853741 -0.314873 5.179446 3.027910 -0.731740 37.080762 2.180408 -5.624440 28.139229 8.427455 -20.726189 9.995010 -4.813802 -59.337787 -0.416951 10.359645 7.721328 -33.579479 18.662889 3.005235 -0.572684 -5.387102 21.681588 -2.995302 1.754904 61.668495 7.262978 17.629182 -11.871572 23.839540 6.182434 -11.194049 0.734755 -1.316376 
-1.270910 0.247813 0.978428 130.120219 -3.810821 88.652670 -1.201698 -10.327001 -3.879777 -2.581845 -19.030453 7.012721 1.919123 3.869663 -11.325963 0.000000 -0.000000 0.000000 -4.908185 -11.253954 1.379864 -3.021555 -13.029641 16.762132 3.121244 -17.726552 -19.415212 0.000000 -0.000000 0.000000 1.985893 11.039814 6.269778 -3.916350 7.125884 -1.821297 -0.327798 5.220410 3.018424 -0.746822 37.000923 2.091902 -5.613146 27.998855 8.425519 -20.772515 10.033144 -4.802158 -59.441666 -0.253413 10.402361 7.580465 -33.560120 18.819357 2.791396 -0.602313 -5.421774 21.693954 -2.961871 1.730504 61.899135 7.210037 17.732637 -11.868586 24.136975 6.254119 -10.753429 0.792619 -1.542576 
